<?xml version="1.0" encoding="utf-8"?>
<!-- Generator: Adobe Illustrator 27.5.0, SVG Export Plug-In . SVG Version: 6.00 Build 0)  -->
<svg version="1.1" id="PRINT" xmlns="http://www.w3.org/2000/svg" xmlns:xlink="http://www.w3.org/1999/xlink" x="0px" y="0px"
	 viewBox="0 0 500 500" style="enable-background:new 0 0 500 500;" xml:space="preserve">
<g>
	<rect id="CUSTOM-background" style="fill:#3B893D;" width="500" height="500"/>
	<g id="CUSTOM-group">
		
			<rect x="330.262" y="208.947" transform="matrix(0.6567 -0.7541 0.7541 0.6567 -64.9364 332.9577)" width="6.007" height="57.721"/>
		
			<rect x="136.48" y="234.409" transform="matrix(0.7766 -0.6299 0.6299 0.7766 -111.4277 160.557)" width="68.441" height="6.006"/>
	</g>
	<g id="CUSTOM-group_00000032647190906172715690000004991816506035156100_">
		
			<ellipse transform="matrix(0.9273 -0.3743 0.3743 0.9273 -40.6778 106.7089)" style="fill:#FFFFFF;" cx="254.356" cy="158.069" rx="36.341" ry="36.341"/>
		<path style="fill:#3B893D;" d="M219.126,163.07l10.463-9.633l-2.878-15.886C226.711,137.551,218.355,149.503,219.126,163.07z"/>
		<path style="fill:#3B893D;" d="M245.974,155.972l7.459-6.929l11.407,6.929l-3.302,11.583c0,0-14.663,2.274-13.835,2.781
			C248.531,170.843,245.974,155.972,245.974,155.972z"/>
		<path style="fill:#3B893D;" d="M239.405,127.073l14.951,7.098l13.776-5.577C268.133,128.594,255.122,122.679,239.405,127.073z"/>
		<path style="fill:#3B893D;" d="M281.609,140.424l-1.458,11.999l8.437,9.464C288.588,161.887,291.196,154.451,281.609,140.424z"/>
		<path style="fill:#3B893D;" d="M260.693,195.179l10.88-14.703l12.958-3.38C284.531,177.096,277.482,193.597,260.693,195.179z"/>
		<path style="fill:#3B893D;" d="M245.974,195.179l-6.568-11.594l-11.984-2.307C227.421,181.278,232.262,191.292,245.974,195.179z"
			/>
		<path style="fill:#FFFFFF;" d="M263.391,218.299l-2.698,3.778l18.213,20.642l5.732-3.373c0,0,27.996-15.628,29.615-24.476
			l-6.206-6.419l0.405-3.238l-11.738-10.802l-1.619,1.358l-3.508-3.778l-9.98,5.262l-11.742-2.842L263.391,218.299z"/>
		<polygon style="fill:#FFFFFF;" points="245.974,216.589 238.297,194.411 228.314,196.578 219.274,190.102 201.601,203.346 
			201.601,208.99 194.354,214.359 215.092,234.219 223.322,239.886 229.707,243.663 250.709,222.347 		"/>
		<path d="M315.096,211.559l-3.153-3.152c-0.054-0.054-0.112-0.101-0.167-0.151c0.168-0.482,0.26-0.992,0.26-1.518
			c0-1.232-0.48-2.391-1.351-3.262l-3.153-3.152c-0.559-0.559-1.227-0.943-1.937-1.155c-0.216-0.725-0.609-1.39-1.159-1.94
			l-3.152-3.151c-1.232-1.231-2.992-1.619-4.557-1.163c-0.073-0.084-0.145-0.168-0.224-0.247l-3.153-3.152
			c-1.799-1.797-4.725-1.798-6.524,0l-5.259,5.257c-0.74-0.815-1.703-1.393-2.799-1.664l-3.74-0.923
			c9.527-6.102,16.189-16.297,17.488-28.083c0.201-0.472,0.243-0.989,0.135-1.477c0.065-0.909,0.1-1.827,0.1-2.752
			c0-21.145-17.208-38.347-38.36-38.347c-11.552,0-21.928,5.132-28.966,13.234c-0.202,0.172-0.375,0.376-0.511,0.602
			c-5.543,6.651-8.883,15.198-8.883,24.511c0,13.335,6.846,25.1,17.206,31.973l-3.228,0.797c-1.095,0.27-2.058,0.849-2.799,1.664
			l-5.259-5.257c-1.799-1.797-4.725-1.798-6.524,0l-3.152,3.151c-0.079,0.079-0.152,0.163-0.224,0.247
			c-1.565-0.455-3.325-0.068-4.557,1.164l-3.153,3.151c-0.55,0.55-0.943,1.215-1.159,1.94c-0.71,0.211-1.378,0.596-1.937,1.155
			l-3.152,3.151c-0.872,0.871-1.352,2.03-1.352,3.262c0,0.526,0.092,1.036,0.26,1.518c-0.056,0.051-0.114,0.098-0.168,0.152
			l-3.152,3.151c-0.872,0.871-1.352,2.03-1.352,3.262c0,1.232,0.48,2.391,1.352,3.262l5.514,5.512c0,0.001,0.001,0.001,0.002,0.002
			l10.475,10.471c2.279,2.278,4.924,4.102,7.863,5.421l4.742,2.129c0.046,0.021,0.094,0.037,0.141,0.054
			c0.226,0.429,0.517,0.826,0.869,1.178l1.829,1.828c0.95,0.949,2.197,1.424,3.445,1.424c1.247,0,2.495-0.475,3.444-1.424
			l19.119-19.112h0c0.92-0.92,1.427-2.143,1.427-3.444c0-1.301-0.507-2.525-1.427-3.444l-1.829-1.828
			c-0.356-0.356-0.754-0.645-1.178-0.868c-0.011-0.029-0.02-0.059-0.032-0.088l-2.456-5.839l-3.424-13.352
			c3.83,1.286,7.928,1.984,12.186,1.984c4.304,0,8.445-0.712,12.311-2.026l-3.553,13.859l-2.456,5.839
			c-0.068,0.161-0.116,0.325-0.147,0.489c-0.671,0.29-1.301,0.704-1.849,1.252l-0.255,0.255c-1.13,1.13-1.753,2.633-1.753,4.232
			c0,1.599,0.623,3.102,1.753,4.232l17.545,17.539c1.167,1.166,2.698,1.749,4.23,1.749c1.532,0,3.064-0.583,4.231-1.749l0.255-0.255
			c0.542-0.542,0.966-1.17,1.262-1.852c0.181-0.035,0.36-0.089,0.535-0.168l4.742-2.129c2.939-1.32,5.585-3.144,7.863-5.421
			l10.475-10.471c0-0.001,0.001-0.001,0.002-0.002l5.514-5.512c0.872-0.871,1.352-2.03,1.352-3.262
			C316.448,213.588,315.968,212.43,315.096,211.559z M284.47,174.634l-14.003,4.891l-6.434-9.897l3.506-10.786l10.616-2.383
			l9.479,7.669C287.16,167.854,286.069,171.391,284.47,174.634z M283.32,142.983c2.625,4.475,4.242,9.607,4.534,15.087l-6.431-5.203
			L283.32,142.983z M279.413,137.618l-2.726,14.202l-10.489,2.354l-9.347-6.789v-9.751l13.712-7.091
			C273.902,132.39,276.893,134.79,279.413,137.618z M262.739,157.705l-3.202,9.85h-10.363l-3.201-9.85l8.383-6.088L262.739,157.705z
			 M254.392,126.377c3.646,0,7.158,0.587,10.447,1.669l-10.409,5.383l-10.003-5.54C247.577,126.907,250.924,126.377,254.392,126.377
			z M238.723,130.272l13.209,7.315v9.798l-9.347,6.789l-10.461-2.348l-2.536-14.453C232.189,134.511,235.28,132.1,238.723,130.272z
			 M220.881,159.875c0-6.257,1.727-12.118,4.727-17.135l1.813,10.335l-6.536,7.095C220.884,160.073,220.881,159.974,220.881,159.875
			z M225.234,176.37c-1.706-3.002-2.963-6.29-3.675-9.774l9.292-10.086l10.395,2.333l1.522,4.684l1.983,6.103l-6.525,10.036
			L225.234,176.37z M245.835,219.813c0.005-0.005,0.01-0.007,0.016-0.007c0.006,0,0.012,0.002,0.017,0.007l1.829,1.829
			c0.008,0.007,0.007,0.023,0,0.031l-19.119,19.112c-0.009,0.009-0.024,0.009-0.033,0l-1.829-1.829
			c-0.007-0.007-0.007-0.023,0-0.031L245.835,219.813z M243.013,215.876c-0.212,0.152-0.417,0.318-0.607,0.508l-19.119,19.112
			c-0.18,0.18-0.339,0.374-0.487,0.576l-3.279-1.472c-2.399-1.078-4.56-2.567-6.421-4.427l-10.474-10.47
			c-0.001-0.001-0.002-0.002-0.003-0.003l-5.347-5.345l2.819-2.819l7.75,7.747c0.296,0.296,0.649,0.499,1.024,0.61
			c0.825,0.244,1.754,0.041,2.404-0.611c0.946-0.947,0.946-2.482-0.001-3.428l-7.915-7.913c0-0.001-0.001-0.001-0.001-0.001
			l-1.669-1.668l2.819-2.818l7.193,7.19c0.473,0.473,1.093,0.71,1.714,0.71c0.621,0,1.241-0.237,1.714-0.71
			c0.946-0.947,0.946-2.482-0.001-3.428l-1.02-1.02l-6.171-6.169l2.82-2.818l1.518,1.518c0,0,0.001,0.001,0.001,0.001l8.067,8.064
			c0.177,0.178,0.376,0.322,0.587,0.433c0.915,0.481,2.073,0.336,2.841-0.433c0.296-0.296,0.499-0.649,0.61-1.024
			c0.244-0.825,0.041-1.753-0.61-2.404l-7.9-7.897l2.82-2.819l7.374,7.372l1.726,6.441c0.347,1.293,1.676,2.061,2.969,1.714
			c1.293-0.347,2.061-1.676,1.714-2.969l-1.753-6.539c-0.014-0.211-0.057-0.419-0.126-0.621c0.009-0.152,0.063-0.271,0.103-0.34
			c0.061-0.103,0.203-0.285,0.473-0.352l5.205-1.285c0.402-0.099,0.816,0.146,0.92,0.549l3.14,12.246l-9.539,3.587
			c-1.253,0.471-1.887,1.869-1.416,3.122c0.365,0.972,1.289,1.572,2.27,1.572c0.283,0,0.572-0.05,0.853-0.156l9.391-3.531
			L243.013,215.876z M229.707,182.506l8.135,2.063l4.618,6.608C237.555,189.303,233.198,186.308,229.707,182.506z M259.229,193.024
			c-1.58,0.229-3.194,0.35-4.837,0.35c-1.616,0-3.205-0.118-4.76-0.34c-0.056-0.116-0.119-0.229-0.195-0.338l-7.201-10.305
			l6.493-9.989h11.325l6.497,9.995l-7.139,10.307C259.342,192.808,259.283,192.915,259.229,193.024z M266.385,191.154l4.63-6.685
			l9.136-3.191C276.511,185.648,271.782,189.079,266.385,191.154z M281.275,240.209l-0.255,0.255c-0.442,0.442-1.162,0.442-1.605,0
			l-17.545-17.539c-0.289-0.289-0.333-0.627-0.333-0.803c0-0.176,0.043-0.514,0.333-0.803l0.255-0.255
			c0.221-0.221,0.512-0.332,0.803-0.332s0.581,0.111,0.803,0.332l17.545,17.539c0.289,0.289,0.333,0.627,0.333,0.803
			C281.609,239.582,281.565,239.92,281.275,240.209z M306.154,220.166c-0.001,0.001-0.002,0.002-0.002,0.003l-10.474,10.47
			c-1.861,1.86-4.021,3.349-6.421,4.427l-3.481,1.563c-0.278-0.529-0.637-1.02-1.072-1.454l-17.545-17.539
			c-0.447-0.447-0.948-0.806-1.482-1.082l1.108-2.633l9.476,3.563c0.281,0.106,0.569,0.156,0.853,0.156
			c0.981,0,1.904-0.6,2.27-1.572c0.471-1.253-0.163-2.651-1.416-3.122l-9.625-3.619l3.14-12.246c0.103-0.403,0.517-0.648,0.92-0.549
			l5.205,1.285c0.27,0.067,0.412,0.249,0.473,0.352c0.041,0.069,0.094,0.188,0.104,0.34c-0.069,0.202-0.111,0.411-0.126,0.621
			l-1.753,6.538c-0.347,1.293,0.421,2.623,1.714,2.969c1.294,0.347,2.623-0.421,2.969-1.714l1.727-6.44l7.374-7.372l2.82,2.818
			l-7.9,7.897c-0.947,0.946-0.947,2.481,0,3.429c0.175,0.175,0.371,0.318,0.579,0.428c0.003,0.001,0.005,0.003,0.008,0.005
			c0.001,0.001,0.002,0.001,0.003,0.002c0.792,0.415,1.765,0.36,2.51-0.162c0.115-0.08,0.225-0.169,0.328-0.272l8.067-8.064
			c0,0,0.001-0.001,0.001-0.001l1.519-1.518l2.82,2.819l-6.65,6.648c-0.947,0.946-0.947,2.481-0.001,3.428
			c0.344,0.344,0.765,0.561,1.207,0.655c0.015,0.003,0.029,0.008,0.044,0.011c0.034,0.007,0.069,0.01,0.104,0.015
			c0.042,0.006,0.084,0.014,0.127,0.018c0.012,0.001,0.023,0.001,0.035,0.002c0.22,0.018,0.443,0.007,0.661-0.035
			c0.003,0,0.006-0.001,0.009-0.002c0.074-0.015,0.147-0.032,0.219-0.053c0.04-0.012,0.078-0.027,0.117-0.041
			c0.035-0.012,0.07-0.023,0.104-0.036c0.292-0.118,0.565-0.296,0.802-0.532l6.652-6.649l2.819,2.819l-7.184,7.182
			c-0.947,0.946-0.947,2.481-0.001,3.428c0.474,0.474,1.094,0.711,1.714,0.711c0.62,0,1.24-0.237,1.714-0.71l5.349-5.347
			l2.819,2.819L306.154,220.166z"/>
	</g>
	<g>
		
			<text transform="matrix(1 0 0 1 128.2297 326.074)" style="font-family:'AlfaSlabOne-Regular'; font-size:81.5616px; letter-spacing:4;">Sporty</text>
	</g>
	
		<text transform="matrix(1 0 0 1 208.6577 358.2334)" style="fill:#FFFFFF; font-family:'PlusJakartaSans-Bold'; font-size:24.3554px;">sports store</text>
</g>
</svg>
